<svg width="500" height="500" viewBox="0 0 500 500" fill="none" xmlns="http://www.w3.org/2000/svg">
<path fill-rule="evenodd" clip-rule="evenodd" d="M38 0C17.0132 0 0 17.0132 0 38V462C0 482.987 17.0132 500 38 500H161.318C163.857 482.052 168.269 464.398 174.494 447.331L194.24 393.19L172.005 318.118L111.808 313.59C104.738 313.059 98.227 309.551 93.8944 303.939L90.3518 299.351C83.6405 290.658 80 279.987 80 269.005C80 264.129 81.8079 259.426 85.0742 255.805L129.069 207.04L157.43 172.036C164.351 163.495 174.159 157.782 185.003 155.976L237.176 147.288L274.744 50L334.548 165.674L349.229 195.01C356.787 210.113 362.308 226.152 365.649 242.707L379.784 312.755L403.552 380.168L496.336 478.302C498.685 473.362 500 467.834 500 462V38C500 17.0132 482.987 0 462 0H38Z" fill="white"/>
</svg>
