<svg xmlns="http://www.w3.org/2000/svg" width="1em" height="1em" viewBox="0 0 128 128"><path fill="white" d="M22.666 1.6C10.133 1.6 0 11.734 0 24.268v79.464C0 116.266 10.133 126.4 22.666 126.4h82.668c12.533 0 22.666-10.134 22.666-22.668V24.268C128 11.734 117.867 1.6 105.334 1.6zm23.201 31.734c4.373 0 8 .532 10.986 1.652A19.05 19.05 0 0 1 64 39.361a17 17 0 0 1 3.894 6.079c.8 2.24 1.225 4.533 1.225 6.933q0 6.88-3.2 11.36c-2.132 2.986-5.118 5.227-8.585 6.507c-3.627 1.334-7.627 1.813-12 1.813c-1.28 0-2.135 0-2.668-.053s-1.28-.053-2.293-.053v17.12c.053.373-.213.694-.586.747H29.44c-.426 0-.638-.215-.638-.695V34.24c0-.373.16-.588.533-.588c.907 0 1.76 0 2.986-.052c1.28-.054 2.613-.052 4.053-.106c1.44-.053 2.987-.054 4.64-.107c1.654-.054 3.254-.053 4.854-.053zm1.19 10.504a19 19 0 0 0-.817.002c-1.386 0-2.613.001-3.627.055c-1.066-.054-1.812-.001-2.185.052v17.92c.746.054 1.438.106 2.078.106h2.828c2.08 0 4.16-.32 6.133-.96c1.707-.48 3.2-1.494 4.373-2.827c1.12-1.334 1.654-3.146 1.654-5.493a8.8 8.8 0 0 0-1.226-4.746c-.907-1.386-2.188-2.454-3.735-3.04c-1.727-.7-3.576-1.033-5.476-1.07zm44.73 2.723c2.187 0 4.427.158 6.613.478c1.6.213 3.146.642 4.586 1.229c.214.053.427.265.533.478c.054.213.108.427.108.64v8.694a.66.66 0 0 1-.266.533c-.48.107-.747.107-.96 0c-1.6-.853-3.308-1.439-5.122-1.812c-1.973-.427-3.946-.695-5.972-.695c-1.067-.054-2.188.108-3.201.374c-.694.16-1.28.534-1.653 1.067c-.266.427-.426.96-.426 1.44s.214.96.534 1.386c.48.587 1.119 1.068 1.812 1.442a49 49 0 0 0 3.787 1.757c2.88.96 5.653 2.295 8.213 3.895c1.76 1.12 3.2 2.614 4.213 4.427a11.5 11.5 0 0 1 1.228 5.493a12.4 12.4 0 0 1-2.082 7.093a13.36 13.36 0 0 1-5.972 4.746c-2.614 1.12-5.814 1.707-9.654 1.707c-2.454 0-4.852-.213-7.252-.693a21.5 21.5 0 0 1-5.44-1.707c-.373-.213-.641-.587-.588-1.014V78.24c0-.16.053-.374.213-.48c.16-.107.32-.052.48.054a22.8 22.8 0 0 0 6.614 2.614c2.027.533 4.161.799 6.295.799c2.026 0 3.466-.267 4.426-.747c.853-.373 1.439-1.28 1.439-2.24c0-.746-.426-1.441-1.28-2.135c-.853-.693-2.613-1.492-5.226-2.505a32.6 32.6 0 0 1-7.574-3.84a13.8 13.8 0 0 1-4.053-4.533a11.44 11.44 0 0 1-1.226-5.44c0-2.293.639-4.48 1.812-6.453c1.333-2.133 3.308-3.84 5.602-4.906c2.506-1.28 5.652-1.867 9.44-1.867z"/></svg>